<svg height="512" viewBox="0 0 512 512" width="512" xmlns="http://www.w3.org/2000/svg"><g id="filled_outline" data-name="filled outline"><path d="m208 176 40 24-8 32h-48z" fill="#e8c8b3"/><path d="m386.284 57.316-40.284 40.284-40.284-40.284a19.516 19.516 0 0 1 -5.716-13.8 19.516 19.516 0 0 1 19.516-19.516 19.516 19.516 0 0 1 13.8 5.716l12.684 12.684 12.684-12.684a19.516 19.516 0 0 1 13.8-5.716 19.516 19.516 0 0 1 19.516 19.516 19.516 19.516 0 0 1 -5.716 13.8z" fill="#f16465"/><path d="m208 128h64a0 0 0 0 1 0 0v48a32 32 0 0 1 -32 32 32 32 0 0 1 -32-32v-48a0 0 0 0 1 0 0z" fill="#e8c8b3"/><path d="m296 112a16 16 0 0 1 -16 16h-40l-8 24h-16l-8 32a16 16 0 0 1 -16-16v-42a30 30 0 0 1 30-30h58a16 16 0 0 1 16 16z" fill="#683b0d"/><path d="m280 488h-136v-208a48 48 0 0 1 48-48h48l6.986 4.191a68 68 0 0 1 33.014 58.309z" fill="#0bafea"/><path d="m256 488h96v-200a32 32 0 0 0 -32-32h-40l-33.061 52.9a45.643 45.643 0 0 0 -6.939 24.192 45.646 45.646 0 0 0 13.37 32.278l2.63 2.63z" fill="#f16465"/><path d="m328 280a24 24 0 0 1 24 24v40a0 0 0 0 1 0 0h-48a0 0 0 0 1 0 0v-40a24 24 0 0 1 24-24z" fill="#c44c31"/><path d="m304 344v48l-48 40-24-8-24 32 32 32 24-24 88-56v-64z" fill="#f5d3bd"/><path d="m374 456h-22v-48h22a10 10 0 0 1 10 10v28a10 10 0 0 1 -10 10z" fill="#e8c8b3"/><path d="m288 216-8 40h32l8-32z" fill="#f5d3bd"/><path d="m310.537 151.723a32 32 0 0 1 32 32v48a0 0 0 0 1 0 0h-64a0 0 0 0 1 0 0v-48a32 32 0 0 1 32-32z" fill="#f5d3bd" transform="matrix(-.931 -.366 .366 -.931 529.423 483.75)"/><path d="m278.9 119.119a16 16 0 0 0 9.038 20.743l29.783 11.706 9.038 20.743-23.41 59.565a24 24 0 0 0 13.558 31.116 24 24 0 0 0 31.115-13.558l26.337-67.01a40 40 0 0 0 -22.6-51.86l-52.119-20.484a16 16 0 0 0 -20.74 9.039z" fill="#ea9d2d"/><path d="m168 256a24 24 0 0 1 24 24v40a0 0 0 0 1 0 0h-48a0 0 0 0 1 0 0v-40a24 24 0 0 1 24-24z" fill="#0a9acd"/><path d="m192 320v56l64 56 32 8 8 24-16 24h-40l-24-32-72-64v-72z" fill="#e8c8b3"/><path d="m340.343 103.257a8 8 0 0 0 11.314 0l40.284-40.283a27.516 27.516 0 1 0 -38.915-38.914l-7.026 7.026-7.027-7.027a27.517 27.517 0 0 0 -38.914 38.915zm-20.826-71.257a11.443 11.443 0 0 1 8.142 3.372l12.684 12.685a8 8 0 0 0 11.314 0l12.683-12.684a11.517 11.517 0 0 1 16.287 16.287l-34.627 34.626-34.627-34.626a11.517 11.517 0 0 1 8.144-19.66z"/><path d="m374 400h-14v-112a39.665 39.665 0 0 0 -10.048-26.511 31.833 31.833 0 0 0 5.518-9.128l26.337-67.009a48 48 0 0 0 -27.116-62.232l-52.119-20.484c-.19-.075-.383-.14-.574-.21a23.849 23.849 0 0 0 -21.998-14.426h-58a38.043 38.043 0 0 0 -38 38v42a24.008 24.008 0 0 0 12.026 20.786l-10.159 35.557a56.074 56.074 0 0 0 -49.867 55.657v208a8 8 0 0 0 8 8h208a8 8 0 0 0 8-8v-24h14a18.021 18.021 0 0 0 18-18v-28a18.021 18.021 0 0 0 -18-18zm-79.626 35.189a7.991 7.991 0 0 0 -4.434-2.95l-16.715-4.179 35.9-29.914a8 8 0 0 0 2.875-6.146v-40h32v51.608zm-142.374-155.189a16 16 0 0 1 32 0v32h-32zm48 0a32.037 32.037 0 0 0 -31.973-32 39.788 39.788 0 0 1 23.973-8h45.784l5.085 3.051a60 60 0 0 1 21.7 22.545l-24.414 39.062a53.651 53.651 0 0 0 7.559 66.369l.287.286v43.057l-48-42zm136.629-9.307a24.042 24.042 0 0 1 3.017 3.51 31.74 31.74 0 0 0 -8.488-2.046 32.1 32.1 0 0 0 5.471-1.464zm-8.629 17.307a16.019 16.019 0 0 1 16 16v32h-32v-32a16.019 16.019 0 0 1 16-16zm-32 16v84.253l-32 26.667v-46.92a8 8 0 0 0 -2.343-5.657l-2.63-2.63a37.646 37.646 0 0 1 -5.3-46.574l30.707-49.139h19.352a32.053 32.053 0 0 0 18.668 8.491 32.046 32.046 0 0 0 -26.454 31.509zm-43.228-90.1a40.065 40.065 0 0 0 15.217-9.357 40.27 40.27 0 0 0 9.875 21.349l-4.7 23.514a76.037 76.037 0 0 0 -22.064-20.075l-1.9-1.142zm41.77 34.1h-4.783l2.39-11.953c.278.116.549.24.83.35.311.122.626.228.939.342a31.614 31.614 0 0 0 .624 11.261zm4.29-26.5a24 24 0 0 1 -13.558-31.115l14.626-37.224 11.807 4.641 6.392 14.669zm-18.832-61.433v-15.459a23.926 23.926 0 0 0 5.014 2.7zm-16 15.933a24 24 0 0 1 -47.247 5.972l5.493-21.972h9.754a8 8 0 0 0 7.59-5.47l6.176-18.53h18.234zm-28.189 39.774-2.057 8.226h-31.149l6.461-22.612a39.919 39.919 0 0 0 26.745 14.386zm130.659-60.763a31.793 31.793 0 0 1 .446 24.487l-26.337 67.011a16 16 0 0 1 -29.779-11.709l23.411-59.565a8 8 0 0 0 -.111-6.122l-9.039-20.744a8 8 0 0 0 -4.408-4.25l-29.782-11.7a8.01 8.01 0 0 1 -4.519-10.373 8 8 0 0 1 10.371-4.52l52.12 20.485a31.792 31.792 0 0 1 17.627 17zm-166.47-29.011a22.025 22.025 0 0 1 22-22h58a8.051 8.051 0 0 1 1.765.217 23.808 23.808 0 0 0 -10.308 11.975 23.97 23.97 0 0 0 -1.139 3.808h-30.318a8 8 0 0 0 -7.59 5.47l-6.176 18.53h-10.234a8 8 0 0 0 -7.761 6.06l-5.9 23.589a7.974 7.974 0 0 1 -2.339-5.649zm-48 283.814 58.083 51.63 13.917 18.556h-72zm92 70.186-21.6-28.8a7.929 7.929 0 0 0 -1.086-1.179l-69.314-61.614v-60.407h32v48a8 8 0 0 0 2.732 6.021l64 56a8.014 8.014 0 0 0 3.328 1.74l27.74 6.939 5.374 16.122-11.455 17.178zm100 0h-49.052l7.708-11.562a8.005 8.005 0 0 0 .934-6.968l-3.625-10.87 44.035-28.027zm32-34a2 2 0 0 1 -2 2h-14v-32h14a2 2 0 0 1 2 2z"/></g></svg>