<svg height="512" viewBox="0 0 512 512" width="512" xmlns="http://www.w3.org/2000/svg"><g><g><g><rect fill="#83d8f4" height="480" rx="24" width="288" x="112" y="16"/><path d="m312 48h-112l-9-32h129z" fill="#57565c"/></g><circle cx="256" cy="256" fill="#ff5023" r="120"/><path d="m248 208h16a24 24 0 0 1 24 24v40a0 0 0 0 1 0 0h-64a0 0 0 0 1 0 0v-40a24 24 0 0 1 24-24z" fill="#ffda44"/><path d="m304 296h-96l8-24h80z" fill="#ff9811"/><path d="m256 184a16 16 0 0 1 16 16v8a0 0 0 0 1 0 0h-32a0 0 0 0 1 0 0v-8a16 16 0 0 1 16-16z" fill="#ff9811"/><path d="m240 296h32a0 0 0 0 1 0 0v8a16 16 0 0 1 -16 16 16 16 0 0 1 -16-16v-8a0 0 0 0 1 0 0z" fill="#ffda44"/></g><g><path d="m376 8h-240a32.042 32.042 0 0 0 -32 32v432a32.042 32.042 0 0 0 32 32h240a32.042 32.042 0 0 0 32-32v-432a32.042 32.042 0 0 0 -32-32zm-66.25 16-4 16h-99.69l-4.5-16zm82.25 448a16.021 16.021 0 0 1 -16 16h-240a16.021 16.021 0 0 1 -16-16v-432a16.021 16.021 0 0 1 16-16h48.94l7.36 26.17a8 8 0 0 0 7.7 5.83h112a8 8 0 0 0 7.76-6.06l6.49-25.94h49.75a16.021 16.021 0 0 1 16 16z"/><path d="m200 456h-56a8 8 0 0 0 0 16h56a8 8 0 0 0 0-16z"/><path d="m232 456h-8a8 8 0 0 0 0 16h8a8 8 0 0 0 0-16z"/><path d="m303.59 269.47a8 8 0 0 0 -7.59-5.47v-32a32.012 32.012 0 0 0 -16-27.695v-4.305a24 24 0 0 0 -48 0v4.305a32.012 32.012 0 0 0 -16 27.695v32a8 8 0 0 0 -7.59 5.47l-8 24a8 8 0 0 0 7.59 10.53h24a24 24 0 0 0 48 0h24a8 8 0 0 0 7.59-10.53zm-47.59-77.47a8.009 8.009 0 0 1 8 8h-16a8.009 8.009 0 0 1 8-8zm-24 40a16.019 16.019 0 0 1 16-16h16a16.019 16.019 0 0 1 16 16v32h-48zm24 80a8.009 8.009 0 0 1 -8-8h16a8.009 8.009 0 0 1 -8 8zm16-24h-52.9l2.666-8h68.468l2.666 8z"/><path d="m256 128a128 128 0 1 0 128 128 128.144 128.144 0 0 0 -128-128zm0 240a112 112 0 1 1 112-112 112.123 112.123 0 0 1 -112 112z"/><path d="m422.829 199.258a8 8 0 0 0 -5.452 9.913 168.868 168.868 0 0 1 0 93.658 8 8 0 1 0 15.365 4.461 184.854 184.854 0 0 0 0-102.58 8 8 0 0 0 -9.913-5.452z"/><path d="m457.8 178.812a8 8 0 1 0 -14.944 5.716 200.919 200.919 0 0 1 0 142.944 8 8 0 1 0 14.944 5.716 216.917 216.917 0 0 0 0-154.376z"/><path d="m482.079 153.913a8 8 0 0 0 -14.578 6.594 232.673 232.673 0 0 1 0 190.986 8 8 0 1 0 14.578 6.594 248.672 248.672 0 0 0 0-204.174z"/><path d="m89.23 199.258a8 8 0 0 0 -9.913 5.452 184.879 184.879 0 0 0 0 102.58 8 8 0 0 0 15.366-4.461 168.868 168.868 0 0 1 0-93.658 8 8 0 0 0 -5.453-9.913z"/><path d="m64.588 174.2a8 8 0 0 0 -10.33 4.614 216.917 216.917 0 0 0 0 154.376 8 8 0 1 0 14.942-5.718 200.919 200.919 0 0 1 0-142.944 8 8 0 0 0 -4.612-10.328z"/><path d="m24.06 256a230.123 230.123 0 0 1 20.5-95.493 8 8 0 0 0 -14.578-6.594 248.672 248.672 0 0 0 0 204.174 8 8 0 1 0 14.578-6.594 230.123 230.123 0 0 1 -20.5-95.493z"/></g></g></svg>