<svg height="512" viewBox="0 0 54 60" width="512" xmlns="http://www.w3.org/2000/svg"><g id="Page-1" fill="none" fill-rule="evenodd"><g id="007---Swiping"><path id="Shape" d="m45 6v29c0-1.1045695-.8954305-2-2-2s-2 .8954305-2 2v-8c0-1.1045695-.8954305-2-2-2s-2 .8954305-2 2v20l-5.59-4.82c-.7321894-.6895373-1.8625512-.7280723-2.64-.09-.4393806.3377019-.7189496.84257-.7720261 1.3941865s.1250979 1.1005286.4920261 1.5158135l8.3 10h-.27c-.2871881 0-.52.2328119-.52.52v3c0 .2871881.2328119.52.52.52h-22.52c-2.7614237 0-5-2.2385763-5-5v-3.04l.29.27c.28480911.2871614.714552.3744903 1.0888524.2212679s.6194518-.5168238.6211476-.9212679v-2.57h10c.5522847 0 1-.4477153 1-1v-8c0-.5522847-.4477153-1-1-1h-10v-2.59c-.0016958-.4044441-.2468472-.7680455-.6211476-.9212679s-.80404329-.0658935-1.0888524.2212679l-.29.29v-29c0-2.76142375 2.2385763-5 5-5h26c1.3260824 0 2.597852.5267842 3.5355339 1.46446609.9376819.9376819 1.4644661 2.20945146 1.4644661 3.53553391z" fill="#02a9f4" fill-rule="nonzero"/><path id="Shape" d="m40 1h-3c1.3260824 0 2.597852.5267842 3.5355339 1.46446609.9376819.9376819 1.4644661 2.20945146 1.4644661 3.53553391v27.28c.6169405-.3562079 1.3767843-.3573625 1.9948044-.0030309.6180201.3543315 1.0009106 1.0106537 1.0051956 1.7230309v-29c0-1.32608245-.5267842-2.59785201-1.4644661-3.53553391-.9376819-.93768189-2.2094515-1.46446609-3.5355339-1.46446609z" fill="#0377bc" fill-rule="nonzero"/><path id="Shape" d="m32.06 7h-10.12c-.5948645.00096606-1.159287-.26291981-1.54-.72l-4.4-5.28h22l-4.4 5.28c-.380713.45708019-.9451355.72096606-1.54.72z" fill="#607d8b" fill-rule="nonzero"/><path id="Shape" d="m39 23c-.0007135.6702444-.057579 1.3392508-.17 2-1.0376868.0885169-1.8337685.9585515-1.83 2v2.64c-.8035756 1.2096564-1.8200521 2.2634037-3 3.11v-.75c0-3.8659932-3.1340068-7-7-7s-7 3.1340068-7 7v.75c-4.6083965-3.3096809-6.269035-9.3946504-3.9807726-14.5864864 2.2882623-5.1918361 7.9000183-8.071553 13.4521301-6.9030669 5.5521119 1.1684862 9.5271267 6.0658152 9.5286425 11.7395533z" fill="#4527a0" fill-rule="nonzero"/><rect id="Rectangle-path" fill="#ffdc00" fill-rule="nonzero" height="4" rx=".52" width="14" x="36" y="55"/><path id="Shape" d="m49.48 55h-3c.2871881 0 .52.2328119.52.52v3c0 .2871881-.2328119.52-.52.52h3c.1379126 0 .2701766-.0547856.3676955-.1523045s.1523045-.2297829.1523045-.3676955v-3c0-.2871881-.2328119-.52-.52-.52z" fill="#fec108"/><g fill-rule="nonzero"><path id="Shape" d="m53 40v7.43c.0037756.6090491-.0633425 1.2164684-.2 1.81-.4709752 2.2409148-1.6656468 4.2648291-3.4 5.76h-12.61l-8.3-10c-.3702682-.4157189-.5505095-.9669544-.4973706-1.5211177.053139-.5541634.3348491-1.0611021.7773706-1.3988823.7774488-.6380723 1.9078106-.5995373 2.64.09l5.59 4.83v-20c-.0037685-1.0414485.7923132-1.9114831 1.83-2h.17c1.1045695 0 2 .8954305 2 2v8c0-1.1045695.8954305-2 2-2s2 .8954305 2 2v3c0-1.1045695.8954305-2 2-2s2 .8954305 2 2v2c0-1.1045695.8954305-2 2-2s2 .8954305 2 2z" fill="#ffe0b2"/><path id="Shape" d="m51 38c-.5760361.0032504-1.1226995.2547156-1.5.69.3192922.3620202.496881.827303.5 1.31v7.43c.0037756.6090491-.0633425 1.2164684-.2 1.81-.4709752 2.2409148-1.6656468 4.2648291-3.4 5.76h3c1.7343532-1.4951709 2.9290248-3.5190852 3.4-5.76.1366575-.5935316.2037756-1.2009509.2-1.81v-7.43c0-1.1045695-.8954305-2-2-2z" fill="#dfc49c"/><circle id="Oval" cx="27" cy="21" fill="#9d27b0" r="4"/><path id="Shape" d="m34 32v.75c-4.183149 3.0042742-9.816851 3.0042742-14 0v-.75c0-3.8659932 3.1340068-7 7-7s7 3.1340068 7 7z" fill="#9d27b0"/><path id="Shape" d="m22 39v8c0 .5522847-.4477153 1-1 1h-10v2.59c-.0016958.4044441-.2468472.7680455-.6211476.9212679s-.80404329.0658935-1.0888524-.2212679l-.29-.29-7.71-7.29c-.18931265-.1877666-.29579832-.4433625-.29579832-.71s.10648567-.5222334.29579832-.71l7.71-7.29.29-.27c.28480911-.2871614.714552-.3744903 1.0888524-.2212679s.6194518.5168238.6211476.9212679v2.57h10c.5522847 0 1 .4477153 1 1z" fill="#ffdc00"/><path id="Shape" d="m15 54c0 .5522847.4477153 1 1 1h15c.5522847 0 1-.4477153 1-1s-.4477153-1-1-1h-15c-.5522847 0-1 .4477153-1 1z" fill="#000"/><path id="Shape" d="m13 8h3c.5522847 0 1-.44771525 1-1s-.4477153-1-1-1h-3c-.5522847 0-1 .44771525-1 1s.4477153 1 1 1z" fill="#000"/><path id="Shape" d="m38 8h3c.5522847 0 1-.44771525 1-1s-.4477153-1-1-1h-3c-.5522847 0-1 .44771525-1 1s.4477153 1 1 1z" fill="#000"/><path id="Shape" d="m8 51.44v2.56c0 3.3137085 2.6862915 6 6 6h35.48c.8394728 0 1.52-.6805272 1.52-1.52v-3c-.002358-.1843794-.0361772-.367003-.1-.54 1.4289312-1.5545713 2.4223702-3.4586628 2.88-5.52.1434066-.6570841.2171474-1.3274549.22-2v-7.42c-.0010263-.9960356-.4963384-1.9266173-1.3219945-2.4837347-.8256561-.5571175-1.8739858-.6681193-2.7980055-.2962653-.2284333-.7939509-.774172-1.4585573-1.5085135-1.8370838s-1.5922801-.4374651-2.3714865-.1629162v-29.22c0-3.3137085-2.6862915-6-6-6h-26c-3.3137085 0-6 2.6862915-6 6v28.55l-7.4 7c-.3786253.3755332-.59159665.8867249-.59159665 1.42s.21297135 1.0444668.59159665 1.42zm3-12.44h10v8h-10c-.5522847 0-1 .4477153-1 1v2.57l-8-7.57 8-7.59v2.59c0 .5522847.4477153 1 1 1zm38 19h-12v-2h12zm-5-20v4c0 .5522847.4477153 1 1 1s1-.4477153 1-1v-4c0-.5522847.4477153-1 1-1s1 .4477153 1 1v6c0 .5522847.4477153 1 1 1s1-.4477153 1-1v-4c0-.5522847.4477153-1 1-1 .2815726-.0011429.5505792.116476.7409324.3239611.1903533.207485.2844117.4856069.2590676.7660389v7.34c-.0008845.5278782-.0578712 1.0541674-.17 1.57-.413204 1.9155687-1.4003915 3.6597162-2.83 5h-11.74l-8-9.65c-.1881471-.2099518-.2789316-.4895681-.25-.77.0304508-.2818884.1705303-.5404968.39-.72.4006334-.3455682 1.0011113-.3192699 1.37.06l5.59 4.83c.2955548.2462839.7061884.3011791 1.0560571.1411782s.576927-.5065235.5839429-.8911782v-20c0-.5522847.4477153-1 1-1s1 .4477153 1 1v13c0 .5522847.4477153 1 1 1s1-.4477153 1-1v-5c0-.5522847.4477153-1 1-1s1 .4477153 1 1zm-20-17c0-1.6568542 1.3431458-3 3-3s3 1.3431458 3 3-1.3431458 3-3 3-3-1.3431458-3-3zm9 11.2c-3.6423612 2.3921165-8.3576388 2.3921165-12 0v-.2c0-3.3137085 2.6862915-6 6-6s6 2.6862915 6 6zm1.88-1.55c-.4494143-2.6136086-2.164816-4.8346419-4.58-5.93 1.0796492-.9345486 1.7000156-2.2920562 1.7-3.72 0-2.7614237-2.2385763-5-5-5s-5 2.2385763-5 5c-.0000156 1.4279438.6203508 2.7854514 1.7 3.72-2.4177932 1.0972845-4.1336467 3.3226491-4.58 5.94-3.4625082-3.5550024-4.1159269-8.9881894-1.5950396-13.2627809 2.5208872-4.2745915 7.591761-6.3319481 12.3783495-5.0221481 4.7865884 1.3097999 8.1034518 5.6623733 8.0966901 10.624929-.0017397.4045954-.0284572.8086974-.08 1.21-1.1539557.4452728-1.9163463 1.5531215-1.92 2.79v2.31c-.3378866.4751373-.7123581.9231656-1.12 1.34zm.99-28.65-3 3.64c-.1903565.2285401-.4725678.36048303-.77.36h-10.16c-.2974322.00048303-.5796435-.1314599-.77-.36l-3.04-3.64zm-21.87 0h1.53l4.1 4.92c.5710695.68562029 1.4177033 1.08144909 2.31 1.08h10.12c.8922967.00144909 1.7389305-.39437971 2.31-1.08l4.1-4.92h1.53c2.209139 0 4 1.790861 4 4v26.18c-.6451023-.2398017-1.3548977-.2398017-2 0v-5.18c-.0081338-1.2876822-.8371285-2.4265439-2.06-2.83.0399345-.388722.0599607-.7792321.06-1.17.0099084-6.1786099-4.330406-11.5105712-10.3824871-12.7546103-6.0520811-1.24403913-12.1436452 1.9435911-14.57166 7.6251457s-.5215822 12.2871322 4.5603866 15.8012341c5.0819688 3.5141018 11.9352473 2.9657272 16.3937605-1.3117695v12.45l-3.91-3.38c-1.1625594-1.2067422-3.0832578-1.2425594-4.29-.08s-1.2425594 3.0832578-.08 4.29l7.52 9.06c-.1557398.2452259-.2389424.5295013-.24.82v2.48h-21c-2.209139 0-4-1.790861-4-4v-1.41c.2650164.0009514.5273009-.0535493.77-.16.7429294-.3099133 1.2276508-1.035025 1.23-1.84v-1.59h9c1.1045695 0 2-.8954305 2-2v-8c0-1.1045695-.8954305-2-2-2h-9v-1.59c-.0023492-.804975-.4870706-1.5300867-1.23-1.84-.2440038-.1001653-.5063542-.1478653-.77-.14v-27.43c0-1.06086596.4214274-2.07828161 1.1715729-2.82842712.7501455-.75014552 1.7675611-1.17157288 2.8284271-1.17157288z" fill="#000"/></g></g></g></svg>